{
    "asset" : {
        "generator" : "Khronos glTF Blender I/O v1.1.46",
        "version" : "2.0"
    },
    "scene" : 0,
    "scenes" : [
        {
            "name" : "Scene",
            "nodes" : [
                0,
                1
            ]
        }
    ],
    "nodes" : [
        {
            "mesh" : 0,
            "name" : "Paredes-col"
        },
        {
            "mesh" : 1,
            "name" : "Cylinder-col",
            "rotation" : [
                0,
                0,
                -1,
                -4.371138828673793e-08
            ],
            "translation" : [
                0,
                0,
                -50.34712600708008
            ]
        }
    ],
    "meshes" : [
        {
            "name" : "Mesh",
            "primitives" : [
                {
                    "attributes" : {
                        "POSITION" : 0,
                        "NORMAL" : 1
                    },
                    "indices" : 2
                }
            ]
        },
        {
            "name" : "Cylinder",
            "primitives" : [
                {
                    "attributes" : {
                        "POSITION" : 3,
                        "NORMAL" : 4
                    },
                    "indices" : 5
                }
            ]
        }
    ],
    "accessors" : [
        {
            "bufferView" : 0,
            "componentType" : 5126,
            "count" : 43,
            "max" : [
                5,
                5,
                5
            ],
            "min" : [
                -5,
                0,
                -10.984315872192383
            ],
            "type" : "VEC3"
        },
        {
            "bufferView" : 1,
            "componentType" : 5126,
            "count" : 43,
            "type" : "VEC3"
        },
        {
            "bufferView" : 2,
            "componentType" : 5123,
            "count" : 81,
            "type" : "SCALAR"
        },
        {
            "bufferView" : 3,
            "componentType" : 5126,
            "count" : 161,
            "max" : [
                40.029998779296875,
                0,
                39.36280822753906
            ],
            "min" : [
                -40.029998779296875,
                -9.949999809265137,
                -40.029998779296875
            ],
            "type" : "VEC3"
        },
        {
            "bufferView" : 4,
            "componentType" : 5126,
            "count" : 161,
            "type" : "VEC3"
        },
        {
            "bufferView" : 5,
            "componentType" : 5123,
            "count" : 291,
            "type" : "SCALAR"
        }
    ],
    "bufferViews" : [
        {
            "buffer" : 0,
            "byteLength" : 516,
            "byteOffset" : 0
        },
        {
            "buffer" : 0,
            "byteLength" : 516,
            "byteOffset" : 516
        },
        {
            "buffer" : 0,
            "byteLength" : 162,
            "byteOffset" : 1032
        },
        {
            "buffer" : 0,
            "byteLength" : 1932,
            "byteOffset" : 1196
        },
        {
            "buffer" : 0,
            "byteLength" : 1932,
            "byteOffset" : 3128
        },
        {
            "buffer" : 0,
            "byteLength" : 582,
            "byteOffset" : 5060
        }
    ],
    "buffers" : [
        {
            "byteLength" : 5644,
            "uri" : "data:application/octet-stream;base64,"
        }
    ]
}
